<?xml version="1.0" encoding="iso-8859-1"?>
<!-- Generator: Adobe Illustrator 19.0.0, SVG Export Plug-In . SVG Version: 6.00 Build 0)  -->
<svg version="1.1" id="Layer_1" xmlns="http://www.w3.org/2000/svg" xmlns:xlink="http://www.w3.org/1999/xlink" x="0px" y="0px"
	 viewBox="0 0 290.51 290.51" style="enable-background:new 0 0 290.51 290.51;" xml:space="preserve">
<g>
	<g>
		<path style="fill:#F9BA48;" d="M51.542,145.255c0-51.758,41.955-93.713,93.713-93.713c51.748,0,93.713,41.955,93.713,93.713
			H51.542z"/>
		<path style="fill:#F9BA48;" d="M238.969,160.052c-7.094,44.725-46.997,78.916-93.713,78.916
			c-46.721,0-86.619-34.191-93.713-78.916H238.969z"/>
		<path style="fill:#333333;" d="M228.984,117.187c-23.039-3.055-52.775-4.733-83.728-4.733s-60.689,1.677-83.728,4.733
			l-1.232-9.287c23.438-3.107,53.609-4.817,84.96-4.817s61.523,1.71,84.956,4.812L228.984,117.187z"/>
		<path style="fill:#333333;" d="M75.584,97.957l-1.232-9.287c19.558-2.591,44.739-4.016,70.899-4.016v9.371
			C119.489,94.021,94.749,95.418,75.584,97.957z"/>
		<path style="fill:#333333;" d="M145.256,154.626C32.8,154.626,32.8,149.289,32.8,144.585c0-3.978,2.497-6.054,17.97-8.64
			l1.106,6.621c16.053,1.387,47.644,2.69,93.381,2.69s77.327-1.303,93.381-2.685l1.106-6.621c15.472,2.582,17.97,4.662,17.97,8.636
			C257.711,149.289,257.711,154.626,145.256,154.626z"/>
		<path style="fill:#333333;" d="M145.256,196.797c-53.295,0-80.101-9.245-81.217-9.638l3.116-8.842
			c0.258,0.094,26.619,9.109,78.101,9.109c47.438,0,77.998-9.081,78.297-9.17l2.713,8.968
			C224.977,187.618,194.066,196.797,145.256,196.797z"/>
		<path style="fill:#333333;" d="M145.256,215.54c-47.217,0-71.035-9.31-72.028-9.704l3.472-8.701
			c0.23,0.084,23.367,9.034,68.556,9.034V215.54z"/>
		<path style="fill:#333333;" d="M154.777,215.535l-0.3-9.362c36.244-1.167,59.297-9.039,59.527-9.114l3.083,8.851
			C216.103,206.253,192.571,214.321,154.777,215.535z"/>
		<path style="fill:#333333;" d="M236.921,126.779c0.642,3.149,1.12,6.349,1.443,9.601c29.801,3.51,39.102,7.249,41.899,8.95
			c-8.879,6.045-58.688,13.982-135.008,13.982s-126.129-7.938-135.008-13.977c2.797-1.706,12.098-5.44,41.899-8.95
			c0.323-3.252,0.801-6.452,1.443-9.601C4.217,132.355,0,139.233,0,145.255c0,5.866,5.374,12.586,45.235,17.895
			c26.75,3.57,62.272,5.534,100.02,5.534s73.265-1.963,100.015-5.534c39.866-5.309,45.24-12.028,45.24-17.895
			C290.511,139.233,286.294,132.355,236.921,126.779z"/>
		<path style="fill:#333333;" d="M228.984,131.244c-25.04-3.317-50.08-4.733-83.728-4.733v-9.371
			c34.079,0,59.489,1.443,84.956,4.812L228.984,131.244z"/>
	</g>
</g>
<g>
</g>
<g>
</g>
<g>
</g>
<g>
</g>
<g>
</g>
<g>
</g>
<g>
</g>
<g>
</g>
<g>
</g>
<g>
</g>
<g>
</g>
<g>
</g>
<g>
</g>
<g>
</g>
<g>
</g>
</svg>
